<svg id="Capa_1" enable-background="new 0 0 512 512" height="512" viewBox="0 0 512 512" width="512" xmlns="http://www.w3.org/2000/svg"><g><g clip-rule="evenodd" fill-rule="evenodd"><circle cx="256" cy="89.214" fill="#ffc144" r="26.236"/><path d="m237.448 70.662c10.245-10.246 26.857-10.246 37.103 0 10.246 10.245 10.246 26.857 0 37.103-10.245 10.246-26.857 10.246-37.103 0-10.245-10.245-10.245-26.857 0-37.103zm18.552-13.73c-2.829-5.897-6.777-11.598-11.502-16.323-14.549-14.549-30.939-14.327-41.184-4.081-10.246 10.245-10.467 26.635 4.081 41.184 4.725 4.725 10.427 8.673 16.323 11.502-1.269.609-2.528 1.269-3.771 1.978-4.534 2.586-8.844 5.816-12.552 9.524-14.549 14.549-14.327 30.939-4.081 41.184 10.245 10.246 26.635 10.467 41.184-4.081 4.725-4.725 8.673-10.427 11.502-16.323 2.829 5.897 6.777 11.599 11.502 16.323 14.549 14.549 30.939 14.327 41.184 4.081 10.246-10.245 10.467-26.635-4.081-41.184-3.708-3.708-8.019-6.938-12.552-9.524-1.243-.709-2.502-1.369-3.771-1.978 5.897-2.829 11.599-6.777 16.323-11.502 14.549-14.549 14.327-30.939 4.081-41.184-10.245-10.246-26.635-10.468-41.184 4.081-4.725 4.725-8.673 10.427-11.502 16.323z" fill="#f3f4f6"/><path d="m244.498 137.818c-14.549 14.549-30.939 14.327-41.184 4.081-10.246-10.245-10.467-26.635 4.081-41.184 3.708-3.708 8.019-6.938 12.552-9.524-118.769 13.083-209.947 89.813-209.947 182.523 0 50.916 27.499 97.017 71.968 130.398-4.795 23.039-20.721 60.828-35.068 78.409 3.004.187 6.029.293 9.08.293 38.913 0 74.221-15.405 100.179-40.44 30.514 10.176 64.293 15.84 99.841 15.84 135.862 0 246-82.603 246-184.5 0-92.71-91.179-169.439-209.948-182.522 4.534 2.586 8.844 5.816 12.552 9.524 14.549 14.549 14.327 30.939 4.081 41.184-10.245 10.246-26.635 10.467-41.184-4.081-4.725-4.725-8.673-10.427-11.502-16.323-2.828 5.896-6.776 11.598-11.501 16.322z" fill="#007D96"/></g><g><path d="m213.501 243.714c5.523 0 10-4.477 10-10s-4.477-10-10-10h-35c-5.523 0-10 4.477-10 10v80c0 5.523 4.477 10 10 10h35c5.523 0 10-4.477 10-10s-4.477-10-10-10h-25v-20h14.624c5.523 0 10-4.477 10-10s-4.477-10-10-10h-14.624v-20z"/><path d="m418.501 293.714v-40c0-16.542-13.458-30-30-30s-30 13.458-30 30v40c0 16.542 13.458 30 30 30s30-13.458 30-30zm-20 0c0 5.514-4.486 10-10 10s-10-4.486-10-10v-40c0-5.514 4.486-10 10-10s10 4.486 10 10z"/><path d="m143.5 323.714c5.523 0 10-4.477 10-10v-80c0-5.523-4.477-10-10-10s-10 4.477-10 10v30h-20.001v-30c0-5.523-4.477-10-10-10s-10 4.477-10 10v80c0 5.523 4.477 10 10 10s10-4.477 10-10v-30h20.001v30c0 5.523 4.478 10 10 10z"/><path d="m243.501 223.714c-5.523 0-10 4.477-10 10v80c0 5.523 4.477 10 10 10h35c5.522 0 10-4.477 10-10s-4.478-10-10-10h-25v-70c0-5.523-4.477-10-10-10z"/><path d="m308.501 223.714c-5.522 0-10 4.477-10 10v80c0 5.523 4.478 10 10 10h35c5.522 0 10-4.477 10-10s-4.478-10-10-10h-25v-70c0-5.523-4.478-10-10-10z"/><path d="m448.089 145.014c-35.745-30.774-83.34-52.107-135.611-61.048 8.146-8.448 12.789-18.035 13.443-27.791.671-10.005-2.939-19.494-10.164-26.718-7.225-7.226-16.718-10.834-26.718-10.164-10.071.675-19.964 5.601-28.607 14.245-1.543 1.542-3.024 3.182-4.432 4.901-1.408-1.719-2.889-3.358-4.431-4.901-17.49-17.489-40.241-19.167-55.327-4.082-14.852 14.852-13.455 37.133 3.28 54.51-52.27 8.94-99.866 30.274-135.611 61.049-41.214 35.481-63.911 81.188-63.911 128.699 0 50.581 25.069 98.076 70.752 134.371-5.677 21.596-19.28 53.018-31.6 68.115-2.371 2.905-2.917 6.892-1.416 10.328 1.502 3.436 4.799 5.742 8.542 5.976 3.323.207 6.587.312 9.702.312 38.143 0 74.37-13.848 102.683-39.124 30.883 9.64 63.598 14.523 97.336 14.523 44.049 0 87.481-8.618 125.6-24.922 5.078-2.172 7.434-8.049 5.262-13.127s-8.049-7.434-13.127-5.262c-35.654 15.25-76.366 23.311-117.735 23.311-33.656 0-66.183-5.156-96.677-15.326-3.533-1.178-7.426-.297-10.105 2.289-22.84 22.028-52.226 35.074-83.597 37.296 11.814-20.59 22.367-48.203 26.138-66.324.791-3.796-.686-7.708-3.787-10.035-43.831-32.903-67.971-76.372-67.971-122.401 0-41.596 20.229-81.919 56.96-113.542 30.315-26.099 70.049-44.875 114.052-54.218-8.094 14.922-6.5 31.288 5.231 43.018 6.877 6.877 15.346 10.27 24.185 10.27 10.55 0 21.625-4.836 31.142-14.352 1.542-1.542 3.023-3.182 4.431-4.9 1.407 1.719 2.889 3.358 4.431 4.901 8.645 8.644 18.537 13.57 28.608 14.245 9.998.667 19.492-2.939 26.718-10.164 7.225-7.225 10.835-16.714 10.164-26.719-.371-5.544-2.032-11.033-4.891-16.29 43.985 9.346 83.705 28.118 114.01 54.209 36.73 31.622 56.959 71.946 56.959 113.542 0 37.719-16.109 73.663-46.586 103.946-3.917 3.893-3.938 10.225-.045 14.142 1.955 1.967 4.523 2.952 7.094 2.952 2.549 0 5.098-.968 7.049-2.906 34.338-34.122 52.488-74.972 52.488-118.134 0-47.511-22.697-93.218-63.911-128.7zm-157.712-105.766c4.218-.284 8.109 1.221 11.237 4.35 3.13 3.129 4.634 7.016 4.352 11.238-.347 5.169-3.263 10.634-8.433 15.804-2.234 2.235-4.766 4.291-7.493 6.099-1.787-4.884-4.631-9.362-8.418-13.148-3.787-3.787-8.264-6.632-13.148-8.418 1.808-2.727 3.865-5.258 6.099-7.493 5.17-5.17 10.635-8.086 15.804-8.432zm-34.377 66.201c-4.336 0-8.414-1.689-11.48-4.755-6.331-6.33-6.331-16.63 0-22.96 3.066-3.066 7.144-4.755 11.48-4.755s8.414 1.688 11.48 4.755c3.067 3.066 4.756 7.144 4.756 11.48s-1.688 8.414-4.756 11.48c-3.067 3.066-7.144 4.755-11.48 4.755zm-45.615-61.85c2.943-2.943 6.453-4.393 10.24-4.393 5.323 0 11.193 2.865 16.802 8.474 2.235 2.235 4.291 4.767 6.099 7.493-4.884 1.786-9.362 4.631-13.149 8.418-3.849 3.849-6.648 8.355-8.4 13.16-2.733-1.81-5.271-3.871-7.51-6.11-9.6-9.599-11.164-19.961-4.082-27.042zm0 91.23c-7.082-7.081-5.518-17.443 4.081-27.042 2.24-2.24 4.778-4.3 7.511-6.111 1.752 4.805 4.552 9.312 8.4 13.16 3.787 3.787 8.265 6.632 13.149 8.419-1.807 2.726-3.864 5.258-6.098 7.493-9.601 9.598-19.963 11.161-27.043 4.081zm91.229 0c-3.128 3.13-7.019 4.637-11.237 4.351-5.17-.347-10.634-3.262-15.805-8.432-2.234-2.234-4.291-4.766-6.099-7.493 4.884-1.787 9.362-4.631 13.148-8.418 3.787-3.787 6.632-8.264 8.418-13.148 2.727 1.808 5.258 3.864 7.493 6.099 5.17 5.17 8.086 10.635 8.433 15.804.283 4.222-1.221 8.107-4.351 11.237z"/><path d="m417.401 402.954h-.007c-5.522 0-9.996 4.477-9.996 10s4.48 10 10.003 10 10-4.477 10-10-4.477-10-10-10z"/></g></g></svg>